<svg xmlns="http://www.w3.org/2000/svg" xmlns:xlink="http://www.w3.org/1999/xlink" viewBox="0 0 162 54"><defs><path id="a" d="M.022.026h53.95V54H.022z"/></defs><g fill="none" fill-rule="evenodd"><g><mask id="b" fill="#fff"><use xlink:href="#a"/></mask><path d="M44.619 17.681c-5.446 9.95-14.707 11.977-14.707 11.977l.008 7.994h-3.018L26.893 27.3c10.395-1.894 15.336-11.172 15.628-11.739l-1.8-1.796C35.824 24.255 24.695 25.32 24.695 25.32l-.007 7.583h-3.015l.01-10.453C34.5 22.154 38.34 11.756 38.437 11.477L26.986.027 0 27.012 26.986 54l26.986-26.987-9.353-9.332" fill="#00726B" mask="url(#b)"/></g><path d="M67.161 10.456h-6.593v.075c1.357.492 1.195 2.293 1.195 3.402v9.297c0 1.109.162 2.933-1.222 3.376v.074h5.4v-.074c-1.438-.74-1.41-1.726-1.41-3.106V12.38c.622-.1 1.247-.148 1.898-.148 2.171 0 3.854.862 3.854 3.033 0 2.366-2.524 3.673-4.858 3.797.624.27 1.303.347 1.981.347 3.066 0 5.97-1.802 5.97-4.637 0-2.761-2.686-4.316-6.215-4.316M74.826 13.757v.075l.113.039c.873.295.856 1.381.843 2.254l-.005.298v7.612l.002.262c.011.838.026 1.988-.838 2.27l-.115.038v.075h4.44v-.074l-.112-.038c-.868-.298-.853-1.393-.841-2.273l.001-.26v-7.612l-.001-.26c-.012-.842-.027-1.993.841-2.292l.112-.04v-.074h-4.44M91.891 13.619l-.031.013c-.262.11-.601.125-.93.125h-8.848a12.843 12.843 0 00-.222-.026 2.131 2.131 0 01-.54-.101l-.03-.011h-.046l-.767 2.34h.088l.046-.04c.566-.481 1.44-.746 2.464-.746h1.85v8.843l.002.263c.002.102.004.207.004.314 0 .808-.08 1.693-.844 1.957l-.113.039v.091h4.613v-.074l-.088-.047c-1.017-.538-1.036-1.178-1.036-2.222v-9.164h1.911c.612 0 1.455.07 1.705.682l.042.103h.105l.71-2.34h-.045M103.942 23.98c-1.02.557-2.595 1.219-4.313 1.219-3.296 0-5.075-2.727-5.075-5.294 0-2.747 1.918-4.666 4.661-4.666 1.259 0 2.549.38 3.73 1.097l.124.069v-2.47c-1.5-.34-2.73-.546-3.817-.546-4.36 0-7.382 2.734-7.382 6.81 0 4.294 3.082 6.763 8.047 6.763 1.215 0 2.142-.31 3.028-.642l.06-.027 1.083-2.332h-.108l-.038.02M114.843 13.757v.075l.109.039c.722.256.804 1.113.804 1.905 0 .12-.001.236-.004.35l-.003.299v2.37h-7.114v-2.37l-.002-.267c-.001-.103-.003-.208-.003-.316 0-.815.073-1.707.803-1.971l.11-.04v-.074h-4.252v.075l.11.039c.832.295.813 1.374.8 2.241l-.002.293v7.628l.001.262c.012.833.024 1.975-.8 2.273l-.11.038v.074h4.253v-.074l-.11-.038c-.73-.264-.803-1.19-.803-1.976 0-.103.002-.204.003-.299l.002-.26V20.54h7.114v3.492l.003.291c.003.114.004.232.004.351 0 .787-.082 1.637-.803 1.891l-.11.04v.074h4.272v-.074l-.112-.04c-.843-.298-.828-1.441-.818-2.275l.002-.258v-7.628l-.002-.258c-.01-.834-.025-1.977.818-2.276l.112-.04v-.074h-4.272M131.072 23.978c-1.023.82-2.472 1.239-3.875 1.123 0 0-2.203-.174-2.769-.222v-4.338h1.632c.637 0 1.43 0 1.716.472l.049.079h.118v-2.415h-.061l-.034.016c-.225.102-.559.102-.881.102h-2.539v-3.337c.657-.098 1.387-.12 2.061-.12.913 0 1.843.056 2.485.733l.048.052h.125v-2.465h-.092l-.034.018c-.192.094-.457.09-.737.084l-.203-.003h-7.16v.075l.112.039c.885.3.87 1.402.861 2.289l-.002.262v7.615l.002.258c.01.84.025 1.99-.858 2.274l-.116.037v.074h9.25l1.034-2.737h-.084l-.048.035M141.644 23.82s-2.29-2.615-2.937-3.356c1.683-.447 3.305-1.756 3.305-3.546 0-2.02-1.823-3.16-4.64-3.16h-5.312v.074l.115.039c.872.295.855 1.381.84 2.254l-.003.297v7.615l.002.292c.016.874.033 1.961-.837 2.24l-.117.037v.074h4.46v-.074l-.114-.037c-.784-.25-.861-1.144-.861-1.96l.001-.31.005-.262v-8.76c.497-.076.913-.121 1.308-.137.801-.032 1.568.226 2.052.69.368.353.564.811.564 1.325 0 1.874-2.255 2.46-3.598 2.643l-.137.02 2.199 3 2.398 2.918c.666.747 1.179.944 2.41.944h2.608l-.25-.143c-1.34-.77-2.632-1.785-3.46-2.717M109.599 32.939h-.097l-.032.014c-.26.11-.602.125-.928.125h-8.766a9.773 9.773 0 00-.221-.027 2.179 2.179 0 01-.543-.1l-.029-.012h-.045l-.77 2.339h.09l.046-.04c.566-.48 1.442-.745 2.466-.745h1.85v8.843l.002.263.001.314c0 .808-.077 1.693-.844 1.957l-.11.039V46h4.612v-.074l-.09-.048c-1.016-.539-1.035-1.178-1.035-2.221v-9.165h1.83c.612 0 1.455.07 1.703.682l.044.103h.218l.683-2.34h-.035M136.502 43.298c-1.025.82-2.475 1.24-3.876 1.123 0 0-2.203-.174-2.768-.222v-4.337h1.632c.637 0 1.43 0 1.716.47l.048.08h.118v-2.414h-.062l-.032.014c-.226.103-.559.103-.881.103h-2.539v-3.337c.655-.099 1.383-.12 2.06-.12.916 0 1.843.056 2.484.733l.05.053h.124v-2.466h-.09l-.036.019c-.194.093-.458.088-.738.084l-.204-.003h-7.16v.074l.113.039c.888.3.874 1.403.861 2.288l-.002.263v7.616l.002.257c.013.84.027 1.991-.859 2.274l-.115.038V46h9.25l1.036-2.738h-.085l-.047.035M96.4 43.14l-2.935-3.356c1.682-.447 3.303-1.756 3.303-3.546 0-2.02-1.821-3.16-4.64-3.16h-5.311v.074l.113.039c.874.295.857 1.381.841 2.254l-.004.297v7.616l.004.291c.016.874.033 1.962-.838 2.24l-.116.038V46h4.46v-.074l-.115-.038c-.783-.25-.862-1.144-.862-1.96 0-.105.001-.209.003-.31l.003-.261v-8.76c.499-.076.914-.122 1.31-.137.8-.033 1.566.225 2.051.69.367.352.563.81.563 1.324 0 1.875-2.253 2.46-3.595 2.643l-.139.02 2.2 3 2.397 2.918c.666.748 1.18.945 2.408.945h2.61l-.25-.144c-1.339-.77-2.631-1.785-3.46-2.717M147.019 43.14l-2.938-3.356c1.683-.447 3.306-1.756 3.306-3.546 0-2.02-1.824-3.16-4.642-3.16h-5.31v.074l.112.039c.874.295.856 1.381.842 2.254l-.003.297v7.616l.003.291c.014.874.032 1.962-.84 2.24l-.115.038V46h4.46v-.074l-.114-.038c-.785-.25-.863-1.144-.863-1.96 0-.105.002-.209.005-.31l.001-.261v-8.76c.5-.076.915-.122 1.31-.137.802-.033 1.567.225 2.052.69.367.352.563.81.563 1.324 0 1.875-2.253 2.46-3.597 2.643l-.138.02 2.2 3c.012.013 2.397 2.918 2.397 2.918.667.748 1.178.945 2.409.945h2.61l-.25-.144c-1.337-.77-2.631-1.785-3.46-2.717M65.426 38.383c.624.27 1.303.346 1.982.346 3.063 0 5.967-1.802 5.967-4.638 0-2.76-2.685-4.315-6.214-4.315h-6.593v.075c1.358.493 1.195 2.293 1.195 3.402v9.297c0 1.109.163 2.934-1.222 3.377V46h5.399v-.074c-1.436-.74-1.409-1.726-1.409-3.107V31.7a12 12 0 011.898-.148c2.171 0 3.854.862 3.854 3.034 0 2.365-2.523 3.672-4.857 3.797M76.369 39.53c.16-.385 1.54-3.738 1.791-4.347.25.609 1.618 3.962 1.777 4.346h-3.568zm7.747 3.913l-.119-.283c-.044-.1.033.074-4.292-10.082h-3.606v.074l.118.034c.243.074.396.18.465.325.143.296-.013.779-.184 1.194l-.038.098-3.486 8.285-.154.39c-.395.991-.724 1.922-1.763 2.417l-.095.045V46h4.129v-.074l-.111-.039c-.322-.115-.508-.248-.588-.421a.615.615 0 01-.046-.251c0-.29.096-.67.277-1.126l1.076-2.776h4.97a4696.458 4696.458 0 001.206 2.997c.213.518.299.815.299 1.02 0 .253-.19.36-.633.547l-.1.043v.08h4.561v-.074l-.093-.046c-1.02-.494-1.38-1.448-1.793-2.438zM120.944 33.078v.074l.087.047c.968.52.986 1.195.986 2.21v7.187l-7.256-8.722c.007.007-.556-.778-.556-.778l-.119-.018h-3.23v.074l.086.047c.988.542.988 1.253.988 2.33v8.001c0 1.078 0 1.788-1.01 2.35l-.084.047V46h3.983v-.074l-.083-.048c-.97-.54-.99-1.215-.99-2.229v-7.342l6.782 8.189c.859 1.059 1.539 1.583 3.09 2.082l.216.07V35.527c0-1.076 0-1.787.987-2.33l.087-.046v-.073h-3.964M156.998 38.425c-1.569-.682-3.051-1.327-3.051-2.461 0-1.198 1.345-1.621 2.495-1.621 1.155 0 2.381.467 3.124 1.19l.281.277V33.28l-.12-.035a10.91 10.91 0 00-3.121-.439c-2.465 0-5.343.727-5.343 3.374 0 2.35 2.155 3.267 4.055 4.077 1.633.695 3.043 1.295 3.043 2.6 0 1.224-1.618 1.876-2.786 1.876-1.551 0-3.2-.595-4.411-1.593l-.386-.315.693 2.844.085.031c1.132.397 2.392.597 3.748.597 3.14 0 5.74-1.715 5.74-4.05 0-2.062-2.151-2.997-4.046-3.823" fill="#1A1919"/></g></svg>